<svg width="50" height="50" viewBox="0 0 50 50" fill="none" xmlns="http://www.w3.org/2000/svg">
<rect width="50" height="50" rx="5" fill="white"/>
<path d="M23.051 24.34C23.5075 24.1104 23.8527 23.8546 24.0892 23.5782C24.51 23.0804 24.7176 22.4204 24.7176 21.6022C24.7176 20.806 24.51 20.1253 24.0947 19.5546C23.4016 18.6251 22.2287 18.1493 20.5703 18.1245H14V31.536H20.1261C20.8164 31.536 21.4559 31.4769 22.0472 31.3558C22.6385 31.2335 23.15 31.0093 23.5832 30.682C23.9682 30.3974 24.29 30.044 24.5457 29.6273C24.95 28.9975 25.1522 28.2838 25.1522 27.489C25.1522 26.719 24.9748 26.063 24.6227 25.524C24.2666 24.9849 23.744 24.5903 23.051 24.34ZM16.7103 20.454H19.6696C20.32 20.454 20.8563 20.5241 21.2771 20.663C21.7639 20.8651 22.0073 21.2763 22.0073 21.9033C22.0073 22.4657 21.8216 22.859 21.4545 23.0804C21.0846 23.3018 20.6047 23.4132 20.0161 23.4132H16.7103V20.454ZM21.3899 28.9728C21.0626 29.1309 20.6019 29.2093 20.012 29.2093H16.7103V25.6326H20.0574C20.6404 25.6368 21.0942 25.7138 21.4187 25.8581C21.9963 26.1194 22.2837 26.598 22.2837 27.2979C22.2837 28.123 21.9867 28.6785 21.3899 28.9728Z" fill="#FF4C2B"/>
<path d="M33.8855 18.75H28.0592V20.4194H33.8855V18.75Z" fill="#FF4C2B"/>
<path d="M35.9096 25.3383C35.7886 24.5614 35.5218 23.8779 35.1065 23.288C34.6514 22.6197 34.0738 22.1302 33.3711 21.8208C32.6712 21.51 31.8833 21.3546 31.006 21.356C29.5332 21.356 28.3369 21.8166 27.4114 22.7311C26.4887 23.6483 26.0267 24.967 26.0267 26.6859C26.0267 28.5189 26.5368 29.8432 27.5627 30.6558C28.5844 31.4699 29.7642 31.8756 31.1036 31.8756C32.7248 31.8756 33.9858 31.3929 34.8865 30.4303C35.4627 29.8225 35.7886 29.2244 35.8601 28.6372H33.1759C33.0205 28.9273 32.8404 29.1542 32.6341 29.3192C32.2601 29.6218 31.7733 29.773 31.1765 29.773C30.6085 29.773 30.1273 29.6479 29.7257 29.399C29.0629 29.0002 28.7164 28.3017 28.6724 27.3075H35.9976C36.0086 26.4508 35.9811 25.7921 35.9096 25.3383ZM28.7384 25.5954C28.8347 24.9505 29.0684 24.439 29.4397 24.0608C29.811 23.684 30.3363 23.4943 31.0087 23.4929C31.6289 23.4929 32.1473 23.6703 32.5695 24.0264C32.9861 24.3853 33.2213 24.9065 33.2694 25.5954H28.7384Z" fill="#FF4C2B"/>
</svg>
