<svg width="50" height="50" viewBox="0 0 50 50" fill="none" xmlns="http://www.w3.org/2000/svg">
<rect width="50" height="50" rx="5" fill="white"/>
<g clip-path="url(#clip0_0_40)">
<path d="M35.9784 20.4681C35.9269 19.2991 35.7379 18.4955 35.4671 17.7991C35.1877 17.0599 34.7579 16.3982 34.1949 15.848C33.6447 15.2893 32.9786 14.8552 32.248 14.5802C31.5476 14.3094 30.7481 14.1204 29.5792 14.0688C28.4015 14.0129 28.0277 14 25.0407 14C22.0538 14 21.68 14.0129 20.5067 14.0645C19.3377 14.116 18.5341 14.3052 17.8379 14.5758C17.0985 14.8552 16.4368 15.2849 15.8866 15.848C15.3279 16.3982 14.8939 17.0643 14.6188 17.7949C14.348 18.4955 14.159 19.2948 14.1074 20.4637C14.0515 21.6414 14.0386 22.0152 14.0386 25.0021C14.0386 27.9891 14.0515 28.3629 14.1031 29.5362C14.1546 30.7052 14.3438 31.5088 14.6146 32.2052C14.8939 32.9444 15.3279 33.6061 15.8866 34.1563C16.4368 34.715 17.1029 35.1491 17.8335 35.4241C18.5341 35.6949 19.3333 35.8839 20.5025 35.9355C21.6756 35.9872 22.0496 35.9999 25.0365 35.9999C28.0235 35.9999 28.3973 35.9872 29.5706 35.9355C30.7396 35.8839 31.5432 35.6949 32.2394 35.4241C33.7179 34.8525 34.8869 33.6835 35.4585 32.2052C35.7291 31.5046 35.9183 30.7052 35.9699 29.5362C36.0214 28.3629 36.0343 27.9891 36.0343 25.0021C36.0343 22.0152 36.03 21.6414 35.9784 20.4681ZM33.9973 29.4503C33.9499 30.5247 33.7695 31.1049 33.619 31.4917C33.2494 32.4501 32.4887 33.2108 31.5303 33.5805C31.1435 33.7309 30.5591 33.9113 29.4889 33.9585C28.3285 34.0102 27.9805 34.023 25.0451 34.023C22.1097 34.023 21.7574 34.0102 20.6012 33.9585C19.5267 33.9113 18.9466 33.7309 18.5598 33.5805C18.0828 33.4042 17.6487 33.1248 17.2963 32.7595C16.931 32.4028 16.6516 31.973 16.4754 31.4961C16.3249 31.1093 16.1445 30.5247 16.0973 29.4546C16.0456 28.2943 16.0328 27.9461 16.0328 25.0107C16.0328 22.0753 16.0456 21.723 16.0973 20.5669C16.1445 19.4925 16.3249 18.9123 16.4754 18.5255C16.6516 18.0484 16.931 17.6144 17.3007 17.2619C17.6572 16.8966 18.087 16.6172 18.5641 16.4411C18.9509 16.2907 19.5355 16.1102 20.6055 16.0629C21.7659 16.0114 22.1141 15.9984 25.0493 15.9984C27.989 15.9984 28.3371 16.0114 29.4932 16.0629C30.5677 16.1102 31.1479 16.2907 31.5347 16.4411C32.0116 16.6172 32.4457 16.8966 32.7981 17.2619C33.1634 17.6186 33.4428 18.0484 33.619 18.5255C33.7695 18.9123 33.9499 19.4967 33.9973 20.5669C34.0488 21.7273 34.0617 22.0753 34.0617 25.0107C34.0617 27.9461 34.0488 28.2899 33.9973 29.4503Z" fill="#FF4C2B"/>
<path d="M25.0409 19.3506C21.9209 19.3506 19.3894 21.8819 19.3894 25.0021C19.3894 28.1223 21.9209 30.6536 25.0409 30.6536C28.1611 30.6536 30.6924 28.1223 30.6924 25.0021C30.6924 21.8819 28.1611 19.3506 25.0409 19.3506ZM25.0409 28.6681C23.0168 28.6681 21.3749 27.0264 21.3749 25.0021C21.3749 22.9778 23.0168 21.3361 25.0409 21.3361C27.0652 21.3361 28.7069 22.9778 28.7069 25.0021C28.7069 27.0264 27.0652 28.6681 25.0409 28.6681Z" fill="#FF4C2B"/>
<path d="M32.2353 19.1275C32.2353 19.8561 31.6445 20.4468 30.9157 20.4468C30.1871 20.4468 29.5964 19.8561 29.5964 19.1275C29.5964 18.3987 30.1871 17.8081 30.9157 17.8081C31.6445 17.8081 32.2353 18.3987 32.2353 19.1275Z" fill="#FF4C2B"/>
</g>
<defs>
<clipPath id="clip0_0_40">
<rect width="22" height="22" fill="white" transform="translate(14 14)"/>
</clipPath>
</defs>
</svg>
