<svg width="159" height="12" viewBox="0 0 159 12" fill="none" xmlns="http://www.w3.org/2000/svg">
<path d="M0.5488 10.7466H2.168C2.46368 10.7466 2.6608 10.5635 2.6608 10.2538V7.73346C2.6608 7.64898 2.71712 7.59266 2.8016 7.59266H9.65856C12.7139 7.59266 13.953 5.86082 13.953 4.24162C13.953 2.62242 12.7139 0.890581 9.65856 0.890581H0.5488C0.23904 0.890581 0.056 1.07362 0.056 1.38338V10.2538C0.056 10.5635 0.23904 10.7466 0.5488 10.7466ZM2.8016 5.08642C2.71712 5.08642 2.6608 5.0301 2.6608 4.94562V3.52354C2.6608 3.43906 2.71712 3.38274 2.8016 3.38274H9.50368C10.8554 3.38274 11.2778 3.53762 11.2778 4.24162C11.2778 4.94562 10.8554 5.08642 9.50368 5.08642H2.8016ZM21.5687 0.721622C17.753 0.721622 15.8945 1.41154 15.3031 1.83394C15.0074 2.04514 15.0074 2.20002 15.1764 2.4957L15.8241 3.67842C15.9649 3.91778 16.2465 3.86146 16.5281 3.7629C17.4573 3.43906 18.6823 3.17154 21.3716 3.17154C24.6241 3.17154 26.0461 3.6925 26.5389 4.72034H22.2164C21.9066 4.72034 21.7236 4.90338 21.7236 5.21314V6.42402C21.7236 6.73378 21.9066 6.91682 22.2164 6.91682H26.5389C26.0602 7.97282 24.6381 8.5501 21.3716 8.46562C18.6541 8.39522 17.4714 8.18402 16.4999 7.87426C16.2605 7.78978 15.9226 7.74754 15.7959 7.95874C15.1341 9.12738 15.0215 9.31042 15.0215 9.4653C15.0215 9.56386 15.1201 9.6765 15.2749 9.80322C15.8663 10.2256 17.7249 10.9155 21.5687 10.9155C26.8909 10.9155 29.4535 9.54978 29.4535 5.81858C29.4535 2.08738 26.8909 0.721622 21.5687 0.721622ZM48.2324 8.24034H46.2049V1.38338C46.2049 1.07362 46.0077 0.890581 45.7121 0.890581H32.4769C32.1671 0.890581 31.9841 1.07362 31.9841 1.38338V7.2125C31.9841 7.86018 31.6461 8.2685 30.6605 8.2685H30.5761C30.2663 8.2685 30.0833 8.45154 30.0833 8.7613V11.4224C30.0833 11.6477 30.21 11.7744 30.4353 11.7744H32.3361C32.5613 11.7744 32.6881 11.6477 32.6881 11.4224V10.7466H46.2049V11.2253C46.2049 11.5351 46.3879 11.7181 46.6977 11.7181H48.2324C48.5421 11.7181 48.7252 11.5351 48.7252 11.2253V8.73314C48.7252 8.42338 48.5421 8.24034 48.2324 8.24034ZM34.5889 3.38274H43.6001V8.24034H34.4903C34.5466 7.97282 34.5889 7.71938 34.5889 7.48002V3.38274ZM51.5556 10.8874C52.6397 10.8874 53.0199 10.6762 53.0199 10.0707V9.59202C53.0199 8.9725 52.6397 8.77538 51.5556 8.77538C50.4433 8.77538 50.0631 8.9725 50.0631 9.59202V10.0707C50.0631 10.6762 50.4433 10.8874 51.5556 10.8874ZM66.8101 10.9155C70.6398 10.9155 72.5125 10.2256 73.1038 9.80322C73.2587 9.6765 73.3573 9.56386 73.3573 9.4653C73.3573 9.31042 73.2446 9.12738 72.5688 7.95874C72.4561 7.74754 72.1182 7.78978 71.8789 7.87426C70.9073 8.18402 69.7246 8.39522 66.9931 8.46562C62.7269 8.57826 61.6286 7.5645 61.6286 5.81858C61.6286 4.07266 62.7269 3.17154 66.9931 3.17154C69.6965 3.17154 70.9214 3.43906 71.8507 3.7629C72.1323 3.86146 72.3998 3.91778 72.5406 3.67842L73.2024 2.4957C73.3713 2.20002 73.3713 2.04514 73.0757 1.83394C72.4843 1.41154 70.6117 0.721622 66.8101 0.721622C61.4737 0.721622 58.9253 2.08738 58.9253 5.81858C58.9253 9.54978 61.4737 10.9155 66.8101 10.9155ZM80.9182 10.7466H82.5374C82.8472 10.7466 83.0302 10.5635 83.0302 10.2538V3.52354C83.0302 3.43906 83.0865 3.38274 83.171 3.38274H88.3384C88.6481 3.38274 88.8312 3.1997 88.8312 2.88994V1.38338C88.8312 1.07362 88.6481 0.890581 88.3384 0.890581H75.1172C74.8075 0.890581 74.6244 1.07362 74.6244 1.38338V2.88994C74.6244 3.1997 74.8075 3.38274 75.1172 3.38274H80.2846C80.3691 3.38274 80.4254 3.43906 80.4254 3.52354V10.2538C80.4254 10.5635 80.6084 10.7466 80.9182 10.7466ZM106.26 0.890581H103.81C103.571 0.890581 103.374 0.975062 103.191 1.11586L98.3755 5.3821L93.2927 1.11586C93.0955 0.975062 92.9125 0.890581 92.6731 0.890581H90.2373C89.7867 0.890581 89.6741 1.18626 90.012 1.49602L96.5029 7.05762L93.0251 10.1411C92.6872 10.4368 92.7999 10.7466 93.2504 10.7466H95.6722C95.9115 10.7466 96.1368 10.6762 96.3199 10.5072L106.486 1.49602C106.809 1.21442 106.711 0.890581 106.26 0.890581ZM125.012 8.24034H122.985V1.38338C122.985 1.07362 122.788 0.890581 122.492 0.890581H109.257C108.947 0.890581 108.764 1.07362 108.764 1.38338V7.2125C108.764 7.86018 108.426 8.2685 107.441 8.2685H107.356C107.046 8.2685 106.863 8.45154 106.863 8.7613V11.4224C106.863 11.6477 106.99 11.7744 107.215 11.7744H109.116C109.341 11.7744 109.468 11.6477 109.468 11.4224V10.7466H122.985V11.2253C122.985 11.5351 123.168 11.7181 123.478 11.7181H125.012C125.322 11.7181 125.505 11.5351 125.505 11.2253V8.73314C125.505 8.42338 125.322 8.24034 125.012 8.24034ZM111.369 3.38274H120.38V8.24034H111.27C111.327 7.97282 111.369 7.71938 111.369 7.48002V3.38274ZM140.599 10.7466C140.909 10.7466 141.092 10.5635 141.092 10.2538V1.38338C141.092 1.07362 140.909 0.890581 140.599 0.890581H138.994C138.614 0.890581 138.473 0.946902 138.22 1.12994L129.687 7.62082C129.603 7.69122 129.518 7.64898 129.518 7.53634V1.38338C129.518 1.07362 129.335 0.890581 129.025 0.890581H127.406C127.097 0.890581 126.913 1.07362 126.913 1.38338V10.2538C126.913 10.5635 127.097 10.7466 127.406 10.7466H129.025C129.406 10.7466 129.575 10.6903 129.8 10.5072L138.332 4.00226C138.417 3.93186 138.501 3.9741 138.501 4.08674V10.2538C138.501 10.5635 138.684 10.7466 138.994 10.7466H140.599ZM149.797 10.9155H151.317C155.626 10.9155 158.287 9.49346 158.287 5.81858C158.287 2.24226 155.626 0.721622 151.317 0.721622H149.797C145.516 0.721622 142.855 2.24226 142.855 5.81858C142.855 9.49346 145.516 10.9155 149.797 10.9155ZM149.797 8.46562C146.812 8.46562 145.516 7.59266 145.516 5.81858C145.516 4.14306 146.812 3.17154 149.797 3.17154H151.317C154.33 3.17154 155.626 4.14306 155.626 5.81858C155.626 7.59266 154.33 8.46562 151.317 8.46562H149.797Z" fill="#FF4C2B"/>
</svg>
