<svg width="50" height="50" viewBox="0 0 50 50" fill="none" xmlns="http://www.w3.org/2000/svg">
<rect width="50" height="50" rx="5" fill="#FF4C2B"/>
<g clip-path="url(#clip0_0_260)">
<path fill-rule="evenodd" clip-rule="evenodd" d="M32.2955 17.6741C30.3659 15.7422 27.7997 14.6779 25.0659 14.6768C19.4325 14.6768 14.8478 19.2614 14.8455 24.8962C14.8448 26.6975 15.3153 28.4559 16.2097 30.0058L14.7598 35.3018L20.1778 33.8805C21.6706 34.6949 23.3513 35.124 25.0617 35.1245H25.066C30.6987 35.1245 35.284 30.5395 35.2861 24.9044C35.2872 22.1735 34.2251 19.6058 32.2955 17.6741ZM25.0659 33.3985H25.0624C23.5381 33.3979 22.0433 32.9882 20.7388 32.2144L20.4288 32.0303L17.2137 32.8737L18.0718 29.739L17.8698 29.4176C17.0194 28.0651 16.5704 26.5019 16.5712 24.8969C16.5729 20.2133 20.3837 16.4029 25.0693 16.4029C27.3382 16.4036 29.4711 17.2884 31.0749 18.894C32.6786 20.4997 33.5613 22.6339 33.5606 24.9038C33.5586 29.5877 29.748 33.3985 25.0659 33.3985ZM29.7254 27.0364C29.4701 26.9085 28.2145 26.2909 27.9804 26.2056C27.7465 26.1203 27.576 26.0779 27.406 26.3335C27.2356 26.589 26.7463 27.1643 26.5973 27.3346C26.4482 27.5051 26.2994 27.5265 26.044 27.3986C25.7886 27.2708 24.9658 27.001 23.9903 26.131C23.2312 25.4539 22.7187 24.6176 22.5697 24.3621C22.4209 24.1063 22.5684 23.9814 22.6817 23.8409C22.9582 23.4976 23.235 23.1377 23.3201 22.9674C23.4053 22.797 23.3627 22.6478 23.2987 22.52C23.235 22.3922 22.7243 21.1353 22.5115 20.6238C22.3041 20.1261 22.0937 20.1933 21.9369 20.1855C21.7881 20.1781 21.6178 20.1765 21.4474 20.1765C21.2772 20.1765 21.0005 20.2404 20.7664 20.4962C20.5324 20.7518 19.8727 21.3696 19.8727 22.6265C19.8727 23.8835 20.7878 25.0978 20.9154 25.2682C21.0431 25.4387 22.7162 28.018 25.2779 29.1241C25.8871 29.3874 26.3627 29.5444 26.7337 29.6621C27.3455 29.8565 27.9021 29.829 28.3422 29.7633C28.8329 29.6899 29.8529 29.1455 30.0659 28.549C30.2786 27.9525 30.2786 27.4412 30.2147 27.3346C30.151 27.2281 29.9807 27.1643 29.7254 27.0364Z" fill="white"/>
</g>
<defs>
<clipPath id="clip0_0_260">
<rect width="22" height="22" fill="white" transform="translate(14 14)"/>
</clipPath>
</defs>
</svg>
